<svg width="25" height="24" viewBox="0 0 25 24" fill="none" xmlns="http://www.w3.org/2000/svg">
<path d="M12.7899 5.53846C13.8732 5.53846 15.2311 4.8061 16.0397 3.82962C16.7721 2.94469 17.3061 1.70884 17.3061 0.472982C17.3061 0.30515 17.2908 0.137317 17.2603 0C16.055 0.0457724 14.6055 0.808646 13.7359 1.8309C13.0493 2.60903 12.4237 3.82962 12.4237 5.08074C12.4237 5.26383 12.4542 5.44692 12.4695 5.50795C12.5458 5.5232 12.6678 5.53846 12.7899 5.53846ZM8.97552 24C10.4555 24 11.1116 23.0083 12.9577 23.0083C14.8344 23.0083 15.2463 23.9695 16.8941 23.9695C18.5114 23.9695 19.5947 22.4743 20.617 21.0095C21.7613 19.3312 22.2343 17.6834 22.2648 17.6071C22.158 17.5766 19.0607 16.3102 19.0607 12.7552C19.0607 9.67324 21.5019 8.28481 21.6392 8.178C20.0219 5.85887 17.5655 5.79784 16.8941 5.79784C15.0785 5.79784 13.5985 6.89638 12.6678 6.89638C11.6608 6.89638 10.3334 5.85887 8.76191 5.85887C5.77145 5.85887 2.73521 8.33058 2.73521 12.9994C2.73521 15.8983 3.86427 18.965 5.2527 20.9485C6.44278 22.6268 7.48029 24 8.97552 24Z" fill="black"/>
</svg>
