<svg width="32" height="32" viewBox="0 0 32 32" fill="none" xmlns="http://www.w3.org/2000/svg">
<path d="M29.5 15.25C29.5052 17.2298 29.0426 19.1828 28.15 20.95C27.0916 23.0676 25.4646 24.8488 23.4512 26.0939C21.4377 27.3391 19.1174 27.9991 16.75 28C14.7702 28.0052 12.8172 27.5426 11.05 26.65L2.5 29.5L5.35 20.95C4.4574 19.1828 3.99484 17.2298 4 15.25C4.00092 12.8826 4.66092 10.5623 5.90608 8.54882C7.15124 6.53537 8.93238 4.90835 11.05 3.85C12.8172 2.95739 14.7702 2.49484 16.75 2.5H17.5C20.6265 2.67248 23.5796 3.99214 25.7937 6.20629C28.0079 8.42043 29.3275 11.3735 29.5 14.5V15.25Z" stroke="#0C5A87" stroke-width="4" stroke-linecap="round" stroke-linejoin="round"/>
</svg>
