<svg width="21" height="20" viewBox="0 0 21 20" fill="none" xmlns="http://www.w3.org/2000/svg">
<path fill-rule="evenodd" clip-rule="evenodd" d="M2.93873 0.418419C2.38083 -0.139473 1.47631 -0.139473 0.918419 0.418419C0.360527 0.976312 0.360527 1.88083 0.918419 2.43873L8.47971 10L0.918419 17.5613C0.360527 18.1192 0.360527 19.0237 0.918419 19.5816C1.47631 20.1395 2.38083 20.1395 2.93873 19.5816L10.5 12.0203L18.0613 19.5816C18.6192 20.1395 19.5237 20.1395 20.0816 19.5816C20.6395 19.0237 20.6395 18.1192 20.0816 17.5613L12.5203 10L20.0816 2.43873C20.6395 1.88083 20.6395 0.976312 20.0816 0.418419C19.5237 -0.139473 18.6192 -0.139473 18.0613 0.418419L10.5 7.97971L2.93873 0.418419Z" fill="#484646"/>
</svg>
