<svg width="380" height="283" viewBox="0 0 380 283" fill="none" xmlns="http://www.w3.org/2000/svg">
<path d="M0.495102 42.6221C-2.31131 23.5829 6.91828 5.31991 25.5054 1.67755H25.6931C43.3248 -1.60655 58.8582 3.17885 61.784 9.9347C71.3889 32.0704 67.4736 39.9437 67.4736 39.9437L26.4181 70.8568C26.4181 70.8568 5.09284 61.5504 0.631584 43.168C0.588934 42.9889 0.529223 42.8012 0.495102 42.6221Z" fill="#273837"/>
<path d="M63.038 23.5744C59.9586 14.8736 51.002 5.66111 42.4378 9.12434L16.8474 23.9326C15.5942 24.4373 14.5762 25.3941 13.9948 26.6136C13.4135 27.8332 13.3113 29.2265 13.7083 30.5179L32.5769 90.5443C33.8943 94.7362 36.8183 98.2356 40.7093 100.277C44.6003 102.318 49.1415 102.736 53.3392 101.437C57.4764 100.158 60.9505 97.3133 63.0218 93.5102C65.093 89.707 65.5977 85.2456 64.4284 81.0759L62.2617 73.3561C62.2617 73.3561 73.0353 68.238 71.1843 52.8327C70.2459 45.1641 66.4586 33.2304 63.038 23.5744Z" fill="#FFBE9D"/>
<path d="M63.5751 32.7186C63.413 33.0342 61.6729 32.386 59.6427 32.966C57.6125 33.546 56.4012 34.9962 56.1112 34.8085C55.9662 34.7317 56.1112 34.2199 56.5974 33.5546C57.2975 32.6981 58.2448 32.0785 59.31 31.7803C60.3687 31.4687 61.4997 31.5076 62.5344 31.8912C63.2936 32.1898 63.6348 32.5821 63.5751 32.7186Z" fill="#273837"/>
<path d="M43.8026 39.2015C43.6405 39.5171 41.9004 38.8689 39.8617 39.4489C37.823 40.029 36.6288 41.4791 36.3388 41.2914C36.1937 41.2147 36.3388 40.7028 36.825 40.0375C37.5293 39.1703 38.4864 38.5441 39.5631 38.2462C40.6218 37.9345 41.7528 37.9734 42.7875 38.3571C43.5467 38.6727 43.8879 39.0992 43.8026 39.2015Z" fill="#273837"/>
<path d="M53.9876 49.6509C53.945 49.54 55.1477 48.96 57.1267 48.1155C57.63 47.9108 58.0906 47.6719 58.0821 47.2625C57.9666 46.7139 57.6905 46.212 57.2888 45.8209L54.6274 42.298C50.8827 37.2652 48.0165 33.0684 48.2213 32.9148C48.426 32.7613 51.6333 36.7193 55.3695 41.752L57.9712 45.3176C58.4771 45.8511 58.7791 46.5457 58.8242 47.2796C58.8019 47.4852 58.7326 47.6829 58.6217 47.8574C58.5108 48.032 58.3612 48.1787 58.1844 48.2861C57.9171 48.4468 57.6305 48.5729 57.3314 48.6614C55.3013 49.395 54.0303 49.7703 53.9876 49.6509Z" fill="#273837"/>
<path d="M62.2534 73.3561C55.3337 75.4379 47.9722 75.559 40.9878 73.7058C40.9878 73.7058 48.8526 82.4236 63.2258 76.8364L62.2534 73.3561Z" fill="#EB996E"/>
<path d="M54.5248 54.8117C53.998 54.432 53.3828 54.1935 52.7378 54.1188C52.0927 54.0442 51.4393 54.1359 50.8398 54.3851C50.4017 54.5499 50.0022 54.8031 49.6662 55.1289C49.3301 55.4547 49.0647 55.8461 48.8864 56.2788C48.7106 56.6957 48.6671 57.1565 48.7617 57.5989C48.8563 58.0413 49.0844 58.444 49.4152 58.7526C49.846 59.0243 50.348 59.1614 50.8571 59.1462C51.3661 59.131 51.8591 58.9642 52.2728 58.6673C53.141 58.0547 53.8777 57.2745 54.4395 56.3727C54.6202 56.143 54.7589 55.883 54.8489 55.605C54.8917 55.4707 54.8934 55.3268 54.8539 55.1915C54.8144 55.0563 54.7355 54.9359 54.6271 54.8458" fill="#9E1D16"/>
<path d="M48.3916 52.7474C48.7158 52.6365 49.3555 54.8458 51.6928 55.8779C54.03 56.9101 56.3161 55.9973 56.4185 56.2959C56.4867 56.4324 56.0176 56.876 55.0281 57.1489C53.75 57.5626 52.3673 57.5143 51.1213 57.0124C49.9316 56.5024 48.9886 55.5472 48.494 54.351C48.1443 53.4127 48.221 52.7986 48.3916 52.7474Z" fill="#273837"/>
<path d="M41.764 31.8144C41.7213 32.4201 39.6144 32.7442 37.3027 33.7081C34.9911 34.672 33.2509 35.8748 32.7903 35.4739C32.5856 35.2777 32.7903 34.6208 33.3959 33.8958C34.2406 32.9351 35.3021 32.1894 36.4924 31.7206C37.6705 31.2196 38.9525 31.0118 40.2285 31.115C41.2095 31.2173 41.7725 31.5244 41.764 31.8144Z" fill="#273837"/>
<path d="M59.7794 24.8965C59.5491 25.4595 58.0136 25.3742 56.3161 25.8348C54.6187 26.2955 53.2965 27.029 52.8273 26.6878C52.6141 26.4917 52.7079 25.9628 53.2112 25.3486C53.8942 24.5785 54.7936 24.0322 55.7918 23.7812C56.7901 23.5301 57.8409 23.5858 58.8069 23.9411C59.5405 24.197 59.8732 24.598 59.7794 24.8965Z" fill="#273837"/>
<path d="M13.4951 49.6765C13.5805 49.8983 20.5325 55.6476 23.8592 54.0951C33.9418 49.4718 26.8192 22.3716 26.8192 22.3716L30.3677 32.0448L46.8308 26.4064L42.1137 15.4708L48.2212 25.1695L63.2343 21.6892C63.2343 21.6892 56.2651 3.77596 43.8197 4.49249C31.3743 5.20902 0.751156 18.2345 13.4951 49.6765Z" fill="#273837"/>
<path d="M21.1208 49.7703C20.8905 49.7192 12.8551 47.9705 14.51 56.4665C16.1648 64.9625 24.3367 61.5419 24.3367 61.2775C24.3367 61.013 21.1208 49.7703 21.1208 49.7703Z" fill="#FFBE9D"/>
<path d="M21.0954 58.582C21.0528 58.582 20.9675 58.7185 20.7372 58.8805C20.4153 59.0999 20.0207 59.1855 19.6368 59.1194C18.6729 58.9658 17.6407 57.6863 17.2995 56.1679C17.1328 55.4438 17.1328 54.6913 17.2995 53.9672C17.3198 53.6885 17.4082 53.4192 17.5569 53.1827C17.7057 52.9462 17.9102 52.7498 18.1526 52.6109C18.3149 52.5341 18.4988 52.5159 18.673 52.5594C18.8472 52.603 19.0009 52.7056 19.1079 52.8497C19.27 53.063 19.2444 53.2421 19.2956 53.2506C19.3468 53.2592 19.4491 53.0715 19.2956 52.7303C19.2081 52.5283 19.0506 52.3647 18.852 52.2697C18.5869 52.1375 18.28 52.116 17.999 52.21C17.6628 52.3473 17.3672 52.5683 17.1402 52.852C16.9133 53.1356 16.7626 53.4725 16.7024 53.8307C16.4878 54.6364 16.4702 55.482 16.6513 56.2959C17.0436 58.0019 18.2293 59.4265 19.5259 59.5459C19.7679 59.5665 20.0115 59.5328 20.2387 59.4472C20.466 59.3616 20.6713 59.2263 20.8395 59.0511C21.121 58.7952 21.1296 58.5905 21.0954 58.582Z" fill="#EB996E"/>
<path d="M37.823 26.0225C37.6827 25.7331 37.5823 25.4261 37.5244 25.1098L36.8079 22.5934C36.0056 19.8398 35.0546 17.1318 33.9588 14.4813C32.8548 11.8323 31.6105 9.24398 30.2312 6.72739L28.9516 4.44984C28.7717 4.18469 28.6256 3.89814 28.5166 3.59683C28.7405 3.82819 28.9352 4.086 29.0966 4.36454C29.4464 4.86782 29.9497 5.627 30.5041 6.58237C31.9749 9.06594 33.2662 11.6515 34.3683 14.3192C35.4798 16.9809 36.4033 19.7172 37.132 22.5081C37.405 23.5829 37.6012 24.4615 37.7121 25.0671C37.7842 25.3805 37.8214 25.7009 37.823 26.0225Z" fill="#455A64"/>
<path d="M48.2725 17.663C48.1957 17.663 47.6071 16.375 46.3105 14.4301C45.5551 13.2999 44.7199 12.2253 43.8112 11.2142C42.6865 9.98197 41.4657 8.84103 40.1603 7.80218C38.8359 6.78763 37.4325 5.88055 35.9635 5.0896C34.7617 4.4528 33.516 3.90263 32.2358 3.44329C30.0436 2.66705 28.6105 2.41968 28.6276 2.33438C28.967 2.33683 29.3049 2.37978 29.6341 2.46233C30.0313 2.524 30.4244 2.60945 30.8113 2.71823C31.2549 2.83766 31.7837 2.94855 32.3382 3.14474C33.652 3.56818 34.9299 4.09588 36.1597 4.72281C37.6546 5.50963 39.0812 6.41983 40.4247 7.44392C41.7515 8.50455 42.9844 9.67751 44.1098 10.9498C45.0223 11.9854 45.8469 13.0953 46.575 14.268C46.8623 14.7121 47.1271 15.1705 47.3683 15.6414C47.5671 15.9881 47.7438 16.347 47.8971 16.7162C48.0602 17.0154 48.1862 17.3333 48.2725 17.663Z" fill="#455A64"/>
<path d="M57.8089 18.2004C57.3919 16.6284 56.7786 15.1152 55.9834 13.6965C53.9084 10.3379 50.8874 7.66707 47.2998 6.01939C43.6967 4.4405 39.884 3.39178 35.9803 2.90589L32.4233 2.42821C31.9834 2.39057 31.5471 2.31928 31.1182 2.21496C31.5578 2.17184 32.0007 2.17184 32.4403 2.21496C33.2933 2.26614 34.5131 2.37703 36.023 2.55616C39.9835 2.94639 43.8565 3.96574 47.496 5.57582C51.1621 7.25685 54.2211 10.0269 56.2564 13.5088C56.8623 14.5779 57.316 15.7263 57.6042 16.9209C57.6803 17.2389 57.7401 17.5606 57.7833 17.8848C57.8032 17.9888 57.8118 18.0946 57.8089 18.2004Z" fill="#455A64"/>
<path d="M9.71626 46.8616C9.71626 46.8616 9.63095 46.7336 9.51153 46.4607L9.02532 45.275C8.82059 44.7546 8.60734 44.1063 8.34291 43.3557C8.07847 42.605 7.8311 41.735 7.60932 40.7967C6.35165 35.7231 6.00506 30.4666 6.5857 25.2718C7.28517 19.2155 9.05091 13.8074 11.4735 10.5574C12.3917 9.25576 13.5498 8.14117 14.8855 7.2733C15.2543 7.04887 15.6392 6.85213 16.0371 6.68472C16.1711 6.61794 16.311 6.56368 16.455 6.52264C16.455 6.57382 15.9006 6.80414 14.9879 7.37566C13.7114 8.2773 12.6077 9.40128 11.7294 10.6939C9.4177 13.9183 7.72021 19.2837 7.02927 25.2804C6.44641 30.4241 6.73479 35.6293 7.88228 40.6772C8.087 41.6497 8.35144 42.5112 8.54763 43.2363L9.15327 45.1641L9.56271 46.3753C9.63323 46.5307 9.68479 46.6939 9.71626 46.8616Z" fill="#455A64"/>
<path d="M13.188 48.0729C14.673 46.6917 15.954 45.1062 16.9924 43.3642C18.076 41.4551 18.8912 39.4056 19.415 37.2737C20.0629 34.6635 20.443 31.994 20.5495 29.3066C20.6689 26.4405 20.6092 23.6938 20.6007 21.203C20.5921 18.7122 20.6007 16.4517 20.7371 14.5666C20.8262 13.0757 21.0057 11.5915 21.2745 10.1224C21.3684 9.60204 21.4707 9.20113 21.539 8.93669C21.5544 8.79426 21.5948 8.65566 21.6584 8.52725C21.6205 9.07134 21.5493 9.6126 21.4451 10.148C21.3001 11.1886 21.1381 12.707 21.0528 14.5836C20.9675 16.4603 20.9675 18.7037 21.0528 21.1945C21.1381 23.6853 21.1551 26.432 21.0528 29.3237C20.927 32.0497 20.5124 34.7546 19.8159 37.3932C19.2598 39.5545 18.3981 41.6255 17.2569 43.5434C16.4895 44.8323 15.548 46.0091 14.459 47.0407C14.1643 47.3225 13.8539 47.5874 13.5292 47.834C13.4239 47.9251 13.3096 48.0052 13.188 48.0729Z" fill="#455A64"/>
<path d="M22.81 61.8149C22.81 61.8149 22.938 61.9855 22.9891 62.3437C23.0484 62.8621 22.9658 63.3869 22.7503 63.8621C22.4302 64.5839 21.8478 65.1571 21.1211 65.4657C20.6624 65.6237 20.173 65.6716 19.6924 65.6057C19.2117 65.5398 18.7533 65.3619 18.3541 65.0863C17.9548 64.8108 17.6259 64.4452 17.3939 64.0192C17.1618 63.5932 17.0331 63.1186 17.0181 62.6337C17.0485 61.8454 17.3779 61.0981 17.9393 60.5439C18.3063 60.1754 18.7661 59.9131 19.27 59.7847C19.6283 59.6994 19.833 59.7335 19.833 59.7847C19.2004 59.9651 18.6266 60.3094 18.1696 60.7827C17.703 61.301 17.4395 61.9706 17.4275 62.6679C17.4539 63.0817 17.5739 63.4842 17.7786 63.8449C17.9832 64.2056 18.2671 64.5151 18.6089 64.7501C18.9506 64.985 19.3413 65.1393 19.7513 65.2012C20.1614 65.2631 20.5802 65.2311 20.976 65.1075C21.6183 64.846 22.1471 64.3655 22.4688 63.7512C22.7558 63.1486 22.8737 62.4793 22.81 61.8149Z" fill="#FAFAFA"/>
<path d="M42.7192 88.7956C34.2914 86.9019 30.4955 83.6775 30.4955 83.6775L31.0415 87.8658L39.4521 95.3979L13.0088 119.026C14.8086 126.226 33.8137 171.231 37.8911 185.681C41.9685 200.131 20.9589 213.301 40.9705 221.823C60.9822 230.344 136.209 226.088 138.06 210.546C139.519 198.271 129.138 159.689 124.685 143.917L143.315 142.211C159.377 115.128 101.56 82.5004 90.6073 79.6769C80.61 77.0582 68.8896 80.0352 66.9191 80.5299L66.6206 79.6001L63.4132 77.4506C63.5445 77.8239 63.6499 78.2058 63.7289 78.5936C63.5753 85.6821 55.9409 88.1303 50.874 88.9662C48.1702 89.4363 45.4009 89.3783 42.7192 88.7956Z" fill="#C2F4FF"/>
<g opacity="0.3">
<path d="M116.129 169.345C102.492 175.466 87.3427 177.391 72.6084 174.875C57.8741 172.36 44.2213 165.518 33.3872 155.22C39.546 164.219 46.3189 174.916 56.1114 179.718C62.0825 182.644 68.8213 183.633 75.4492 184.205C88.0397 185.297 101.722 184.751 111.822 177.159C114.474 180.145 117.153 183.13 120.403 185.493C123.653 187.856 127.56 189.442 131.552 189.263C129.001 181.143 122.433 175.044 116.129 169.345Z" fill="black"/>
</g>
<path d="M105.117 194.492C112.12 199.679 119.661 205.923 126.732 211.015C127.964 211.927 129.378 212.562 130.878 212.875C134.009 213.369 135.561 211.39 137.361 208.78C139.681 205.43 141.489 201.753 142.726 197.87C143.656 194.944 144.125 191.379 142.053 189.101C140.517 187.395 138.811 187.276 136.619 186.645C135.766 186.389 134.435 181.987 134.188 181.168L131.535 188.547L125.41 191.148L112.351 189.826L105.117 194.492Z" fill="#C2F4FF"/>
<path d="M134.375 185.339C134.241 185.657 134.069 185.958 133.864 186.235C133.358 187.03 132.811 187.799 132.226 188.538C128.384 193.459 123.448 197.417 117.81 200.097C116.727 200.6 115.839 200.95 115.208 201.188C114.889 201.323 114.558 201.426 114.219 201.496C114.219 201.419 115.558 200.89 117.631 199.789C123.136 197.002 128.012 193.118 131.961 188.376C133.463 186.517 134.29 185.297 134.375 185.339Z" fill="#273837"/>
<path d="M67.465 80.4276C67.4655 80.5741 67.4484 80.7202 67.4138 80.8626C67.3383 81.274 67.2415 81.6811 67.1238 82.0824C66.6608 83.5501 65.9575 84.9309 65.0424 86.1683C63.6832 88.0108 61.9583 89.5528 59.9756 90.6978C57.5331 92.0683 54.8421 92.9382 52.0596 93.2569C47.0128 93.8888 41.8888 93.1614 37.2172 91.1499C35.8135 90.5304 34.4855 89.7519 33.2592 88.8298C32.9244 88.5821 32.6027 88.3173 32.2953 88.0364C32.0906 87.8488 31.9797 87.7464 31.9883 87.7294C31.9968 87.7123 32.4745 88.0876 33.3616 88.6933C34.6118 89.5449 35.9433 90.2707 37.3366 90.8599C41.9754 92.7713 47.029 93.453 52.0084 92.8389C54.7349 92.5236 57.3726 91.6743 59.7708 90.3396C61.721 89.2384 63.4297 87.756 64.7951 85.9807C65.7143 84.7792 66.445 83.4445 66.9617 82.0227C67.3115 81.0076 67.4224 80.4191 67.465 80.4276Z" fill="#273837"/>
<path d="M77.4621 50.3504C76.3602 51.0941 75.3191 51.9241 74.3486 52.8327C73.9473 53.428 73.5909 54.0524 73.2824 54.7008C73.1476 54.9168 73.0988 55.1756 73.1459 55.4258C73.193 55.5123 73.2577 55.5878 73.336 55.6475C73.4143 55.7072 73.5042 55.7497 73.6 55.7723C73.6958 55.7948 73.7953 55.7969 73.892 55.7783C73.9887 55.7598 74.0803 55.7211 74.161 55.6647C74.4753 55.4129 74.7095 55.075 74.8349 54.6922C74.8766 54.9703 74.9758 55.2367 75.1263 55.4743C75.2768 55.7118 75.4752 55.9154 75.7088 56.0719C75.9424 56.2285 76.2061 56.3346 76.483 56.3834C76.76 56.4323 77.0441 56.4228 77.3171 56.3556C77.8617 56.1811 78.338 55.8405 78.6792 55.3815C79.0203 54.9226 79.2092 54.3683 79.2193 53.7966C79.2535 52.6535 78.264 51.1608 77.4621 50.3504Z" fill="#273837"/>
<path d="M170.91 211.953C170.603 211.817 170.978 210.444 171.276 208.26C171.345 207.705 171.43 207.108 171.456 206.469C171.481 205.829 171.507 205.138 171.524 204.413C171.491 202.849 171.329 201.292 171.038 199.755C170.719 198.226 170.268 196.728 169.69 195.277C169.4 194.612 169.144 193.972 168.837 193.409C168.53 192.846 168.257 192.3 167.984 191.822C166.866 189.912 165.988 188.794 166.218 188.547C166.448 188.299 167.711 189.084 169.263 190.91C169.688 191.406 170.078 191.93 170.432 192.479C170.846 193.107 171.222 193.76 171.558 194.433C172.308 195.988 172.867 197.63 173.221 199.32C173.54 201.006 173.657 202.725 173.571 204.438C173.518 205.186 173.421 205.929 173.281 206.665C173.172 207.31 173.015 207.945 172.812 208.567C172.078 210.887 171.157 212.073 170.91 211.953Z" fill="#273837"/>
<path d="M174.91 214.316C174.637 214.103 175.482 212.721 176.463 210.41C176.74 209.783 176.985 209.142 177.196 208.49C177.461 207.808 177.657 207.04 177.887 206.247C178.319 204.517 178.605 202.753 178.74 200.975C178.835 199.191 178.775 197.401 178.561 195.627C178.433 194.816 178.348 194.032 178.169 193.315C177.99 192.599 177.853 191.933 177.683 191.319C177 188.897 176.343 187.429 176.633 187.25C176.923 187.071 178.032 188.325 179.192 190.782C179.505 191.451 179.77 192.14 179.986 192.846C180.243 193.652 180.454 194.472 180.617 195.303C181.363 199.143 181.114 203.11 179.892 206.827C179.626 207.631 179.31 208.417 178.945 209.181C178.646 209.854 178.298 210.504 177.904 211.126C176.429 213.429 175.115 214.487 174.91 214.316Z" fill="#273837"/>
<path d="M155.138 156.815C155.07 156.815 155.385 155.825 155.701 154.256C156.092 152.167 156.317 150.051 156.375 147.926C156.469 145.436 156.375 143.175 156.281 141.537C156.189 140.656 156.157 139.77 156.187 138.884C156.408 139.748 156.545 140.631 156.596 141.52C156.815 143.654 156.889 145.8 156.818 147.943C156.753 150.094 156.468 152.232 155.965 154.324C155.819 154.958 155.631 155.582 155.402 156.192C155.274 156.584 155.172 156.815 155.138 156.815Z" fill="#273837"/>
<path d="M183.415 257.257C183.415 257.257 224.496 271.758 226.142 272.509C228.599 273.566 227.524 282.787 223.583 282.369C221.732 282.165 191.322 281.235 187.509 280.732C183.696 280.228 172.454 274.854 172.454 274.854L183.415 257.257Z" fill="#455A64"/>
<path d="M199.75 274.471C199.955 274.513 200.399 272.321 201.908 270.103C203.418 267.885 205.261 266.631 205.141 266.452C205.022 266.273 202.915 267.305 201.328 269.711C199.742 272.116 199.571 274.471 199.75 274.471Z" fill="#273837"/>
<path d="M195.519 272.185C195.724 272.236 196.287 270.282 197.558 268.167C198.829 266.051 200.245 264.618 200.117 264.465C199.989 264.311 198.275 265.574 196.961 267.809C195.647 270.044 195.34 272.159 195.519 272.185Z" fill="#273837"/>
<path d="M191.527 270.794C191.74 270.794 191.723 268.696 192.815 266.435C193.907 264.175 195.511 262.844 195.374 262.682C195.238 262.52 193.327 263.68 192.184 266.137C191.041 268.593 191.322 270.845 191.527 270.794Z" fill="#273837"/>
<path d="M192.619 265.437C193.064 264.469 193.294 263.415 193.293 262.349C193.365 261.209 193.302 260.063 193.105 258.937C192.986 258.265 192.824 257.601 192.619 256.95C192.518 256.545 192.312 256.174 192.022 255.875C191.819 255.706 191.564 255.614 191.301 255.614C191.037 255.614 190.782 255.706 190.58 255.875C190.233 256.165 190.003 256.571 189.932 257.018C189.865 257.382 189.822 257.749 189.804 258.118C189.762 258.811 189.799 259.507 189.915 260.191C190.119 261.332 190.478 262.44 190.981 263.484C191.382 264.465 191.96 265.364 192.687 266.137C192.789 266.077 192.158 265.053 191.442 263.288C191.031 262.262 190.744 261.191 190.588 260.097C190.501 259.459 190.478 258.813 190.52 258.17C190.589 257.521 190.64 256.72 191.032 256.464C191.108 256.392 191.209 256.351 191.314 256.351C191.418 256.351 191.519 256.392 191.595 256.464C191.789 256.68 191.927 256.941 191.996 257.223C192.206 257.843 192.377 258.475 192.508 259.116C192.721 260.207 192.829 261.315 192.832 262.426C192.781 264.243 192.508 265.412 192.619 265.437Z" fill="#273837"/>
<path d="M192.602 265.011C191.774 264.593 190.859 264.376 189.932 264.379C188.928 264.308 187.92 264.362 186.929 264.542C186.323 264.626 185.731 264.795 185.172 265.045C184.817 265.195 184.52 265.457 184.326 265.791C184.132 266.125 184.052 266.513 184.097 266.896C184.165 267.264 184.331 267.607 184.577 267.889C184.823 268.171 185.141 268.382 185.496 268.5C186.105 268.696 186.752 268.74 187.381 268.627C188.39 268.443 189.348 268.051 190.196 267.476C190.997 267.02 191.704 266.414 192.278 265.693C191.468 266.09 190.687 266.543 189.94 267.049C189.123 267.525 188.223 267.841 187.288 267.979C186.767 268.065 186.234 268.022 185.735 267.851C185.498 267.772 185.285 267.632 185.119 267.445C184.952 267.258 184.838 267.03 184.788 266.785C184.765 266.547 184.821 266.307 184.948 266.104C185.074 265.9 185.264 265.744 185.488 265.659C185.988 265.431 186.516 265.267 187.057 265.173C187.997 264.978 188.955 264.881 189.915 264.883C191.527 264.883 192.576 265.147 192.602 265.011Z" fill="#273837"/>
<path d="M206.156 275.383C206.361 275.383 206.284 273.575 207.248 271.664C208.212 269.754 209.645 268.704 209.526 268.534C209.406 268.363 207.649 269.225 206.617 271.357C205.585 273.49 205.977 275.435 206.156 275.383Z" fill="#273837"/>
<path d="M176.787 275.247C177.276 275.591 177.802 275.877 178.357 276.1C179.83 276.819 181.352 277.435 182.912 277.942C188.087 279.431 193.423 280.29 198.803 280.501C205.082 280.877 210.745 280.988 214.874 281.116L219.753 281.192C220.348 281.231 220.945 281.211 221.536 281.133C220.954 281 220.359 280.929 219.762 280.919L214.9 280.612L198.846 279.802C193.512 279.562 188.219 278.753 183.057 277.388C179.107 276.322 176.847 275.128 176.787 275.247Z" fill="#273837"/>
<path d="M175.482 276.117C176.579 275.771 177.658 275.37 178.715 274.914C181.267 273.917 184.048 273.654 186.742 274.155C189.864 274.863 191.954 277.141 193.301 278.71C193.988 279.639 194.737 280.52 195.545 281.346C195.061 280.287 194.438 279.298 193.694 278.403C192.95 277.379 192.091 276.443 191.135 275.614C189.924 274.574 188.482 273.84 186.929 273.473C184.111 272.924 181.192 273.267 178.578 274.454C177.464 274.838 176.418 275.4 175.482 276.117Z" fill="#273837"/>
<path d="M138.325 239.506C138.325 239.506 96.8428 262.674 95.3671 263.646C93.1152 265.113 95.0259 272.969 98.7792 271.895C100.579 271.391 134.495 264.473 138.171 263.364C141.848 262.256 152.024 255.048 152.024 255.048L138.325 239.506Z" fill="#455A64"/>
<path d="M125.112 259.176C125.291 259.176 124.745 256.813 122.757 254.741C120.77 252.668 118.492 251.994 118.492 252.181C118.492 252.369 120.454 253.282 122.297 255.235C124.139 257.189 124.915 259.287 125.112 259.176Z" fill="#273837"/>
<path d="M128.899 256.242C129.069 256.191 128.447 254.143 126.758 252.173C125.069 250.202 123.167 249.247 123.081 249.409C122.996 249.571 124.634 250.748 126.22 252.634C127.807 254.519 128.711 256.327 128.899 256.242Z" fill="#273837"/>
<path d="M132.669 254.203C132.857 254.203 132.814 251.934 131.245 249.716C129.675 247.498 127.568 246.671 127.517 246.85C127.466 247.029 129.223 248.061 130.673 250.126C132.123 252.19 132.422 254.237 132.669 254.203Z" fill="#273837"/>
<path d="M130.622 249.111C130.733 249.068 130.264 247.959 129.94 246.074C129.751 244.981 129.671 243.873 129.701 242.764C129.72 242.11 129.78 241.458 129.88 240.811C129.899 240.508 129.993 240.215 130.153 239.958C130.218 239.877 130.311 239.824 130.414 239.808C130.516 239.793 130.621 239.815 130.708 239.872C131.143 240.086 131.33 240.87 131.501 241.493C131.651 242.123 131.737 242.766 131.757 243.412C131.776 244.519 131.664 245.625 131.424 246.705C131.015 248.565 130.571 249.682 130.665 249.725C131.261 248.847 131.681 247.862 131.902 246.825C132.228 245.716 132.398 244.568 132.405 243.412C132.403 242.72 132.323 242.031 132.166 241.357C132.087 240.994 131.982 240.638 131.851 240.29C131.704 239.855 131.4 239.49 130.998 239.267C130.766 239.139 130.496 239.096 130.236 239.146C129.976 239.196 129.741 239.335 129.573 239.54C129.341 239.886 129.201 240.285 129.164 240.7C129.07 241.376 129.022 242.057 129.019 242.739C129.02 243.887 129.152 245.032 129.411 246.151C129.596 247.213 130.009 248.223 130.622 249.111Z" fill="#273837"/>
<path d="M130.571 248.684C130.622 248.786 131.577 248.377 133.207 248.104C134.153 247.943 135.113 247.88 136.073 247.916C136.62 247.918 137.165 247.99 137.693 248.13C137.924 248.179 138.132 248.303 138.286 248.481C138.44 248.66 138.531 248.884 138.546 249.119C138.54 249.37 138.466 249.615 138.332 249.828C138.199 250.041 138.01 250.215 137.787 250.33C137.326 250.581 136.811 250.715 136.286 250.723C135.34 250.742 134.399 250.58 133.514 250.245C132.685 249.869 131.83 249.556 130.955 249.307C131.646 249.916 132.445 250.394 133.309 250.714C134.241 251.14 135.253 251.364 136.277 251.371C136.916 251.38 137.547 251.227 138.111 250.928C138.442 250.754 138.721 250.494 138.917 250.176C139.114 249.858 139.221 249.493 139.229 249.119C139.209 248.732 139.063 248.361 138.814 248.064C138.565 247.767 138.225 247.56 137.847 247.473C137.272 247.314 136.678 247.233 136.081 247.234C135.078 247.226 134.078 247.344 133.104 247.584C132.184 247.743 131.315 248.12 130.571 248.684Z" fill="#273837"/>
<path d="M103.974 270.803C103.974 270.871 104.665 270.444 105.049 269.336C105.471 267.88 105.312 266.317 104.605 264.977C104.263 264.256 103.867 263.563 103.419 262.904C103.073 262.34 102.655 261.823 102.174 261.368C101.833 261.046 101.407 260.83 100.946 260.746C100.613 260.746 100.442 260.746 100.442 260.822C100.442 260.899 101.142 260.925 101.824 261.727C102.225 262.196 102.574 262.708 102.865 263.254C103.27 263.906 103.637 264.581 103.965 265.275C104.595 266.48 104.808 267.86 104.571 269.199C104.349 270.214 103.88 270.726 103.974 270.803Z" fill="#273837"/>
<path d="M118.953 261.164C119.132 261.164 119.217 259.185 117.818 257.274C116.419 255.363 114.5 254.792 114.474 254.971C114.449 255.15 116.018 255.935 117.247 257.683C118.475 259.432 118.739 261.189 118.953 261.164Z" fill="#273837"/>
<path d="M147.878 256.131C147.245 256.445 146.635 256.804 146.053 257.206C144.398 258.184 142.689 259.07 140.935 259.859C138.331 261 135.655 261.972 132.925 262.767C129.846 263.671 126.408 264.473 122.774 265.275C115.498 266.828 108.904 268.252 104.144 269.327L98.5487 270.632C97.8506 270.761 97.1655 270.953 96.5015 271.204C97.2079 271.157 97.9096 271.054 98.5999 270.896L104.281 269.813C109.066 268.866 115.66 267.519 122.945 265.958C126.587 265.181 130.042 264.337 133.181 263.399C135.93 262.575 138.613 261.545 141.208 260.319C142.956 259.489 144.641 258.531 146.249 257.453C146.833 257.065 147.379 256.623 147.878 256.131Z" fill="#273837"/>
<path d="M149.311 256.762C148.28 256.216 147.169 255.836 146.019 255.636C143.241 254.907 140.305 255.059 137.617 256.071C136.148 256.691 134.85 257.653 133.829 258.878C133.017 259.861 132.316 260.931 131.739 262.068C131.154 263.075 130.706 264.157 130.409 265.284C131.069 264.335 131.659 263.341 132.174 262.307C133.249 260.532 134.93 257.939 137.89 256.719C140.46 255.774 143.243 255.568 145.925 256.122C148.023 256.489 149.286 256.873 149.311 256.762Z" fill="#273837"/>
<path d="M226.773 184.282C226.773 184.282 238.366 189.4 237.479 202.707C235.773 228.254 182.093 252.779 182.093 252.779L116.462 202.357L112.265 200.31C112.265 200.31 207.632 171.939 226.773 184.282Z" fill="#273837"/>
<path d="M149.55 228.596C150.205 228.287 150.832 227.925 151.427 227.512C152.613 226.77 154.302 225.67 156.383 224.288C160.537 221.516 166.201 217.575 172.309 213.037C178.416 208.499 183.833 204.2 187.663 201.018C189.582 199.423 191.126 198.118 192.175 197.196C192.743 196.748 193.271 196.252 193.753 195.712C193.136 196.091 192.549 196.516 191.996 196.983L187.347 200.625C183.423 203.705 177.964 207.927 171.874 212.465C165.783 217.003 160.162 220.995 156.084 223.879L151.256 227.291C150.653 227.678 150.082 228.115 149.55 228.596Z" fill="#455A64"/>
<path d="M206.498 193.23C206.498 193.068 203.486 192.547 199.827 193.366C196.168 194.185 193.609 195.925 193.711 196.053C193.813 196.181 196.432 194.816 199.972 194.057C203.512 193.298 206.489 193.494 206.498 193.23Z" fill="#455A64"/>
<path d="M200.85 188.794C200.799 188.624 198.53 189.434 196.585 191.575C194.641 193.716 193.916 196.053 194.086 196.053C194.257 196.053 195.178 194.049 197.063 192.053C198.948 190.057 200.953 188.982 200.85 188.794Z" fill="#455A64"/>
<path d="M224.308 271.715C224.351 271.639 223.507 271.417 222.5 272.133C221.306 273.105 220.501 274.473 220.231 275.989C219.902 277.47 220.012 279.014 220.547 280.433C220.956 281.517 221.459 282.045 221.528 281.994C221.396 281.414 221.225 280.844 221.016 280.288C220.661 278.933 220.626 277.514 220.913 276.143C221.17 274.777 221.829 273.521 222.807 272.534C223.592 271.809 224.317 271.835 224.308 271.715Z" fill="#273837"/>
<path d="M188.217 257.112C188.217 257.112 95.4693 186.508 91.5881 184.904C87.7069 183.301 78.5199 176.315 68.7103 178.294C58.9007 180.273 49.6711 188.291 44.4762 200.6C41.5078 207.629 39.4776 219.835 38.2834 229.014C36.7619 239.992 39.5734 251.131 46.1225 260.072C49.1337 264.107 52.9466 267.706 57.6382 269.532C58.6277 269.916 59.6598 270.265 60.7176 270.572C78.827 275.853 98.2501 268.926 109.723 253.93L112.197 250.646C112.197 250.646 174.16 278.48 175.175 278.215L188.217 257.112Z" fill="#273837"/>
<path d="M69.1709 231.112C69.1709 231.112 69.3415 231.214 69.6827 231.385L71.2352 232.127L77.2063 234.934L99.504 245.17C108.981 249.486 120.335 254.613 133.07 260.294C145.805 265.975 159.94 272.236 175.055 278.531L175.328 278.642L175.482 278.386L184.097 264.414L188.49 257.291L188.661 257.018L188.396 256.83L117.571 204.583L96.2455 188.973L90.4621 184.768L88.9522 183.693C88.611 183.454 88.4234 183.343 88.4234 183.343C88.4234 183.343 88.5769 183.488 88.9096 183.744L90.3853 184.879L96.0919 189.144C101.099 192.872 108.307 198.263 117.247 204.933L187.97 257.385L187.885 256.924L183.492 264.047L174.876 278.028L175.311 277.883C160.204 271.57 146.07 265.361 133.317 259.731L99.6831 244.743L77.3001 234.703L71.2522 232.008L69.6827 231.325C69.3586 231.172 69.1709 231.112 69.1709 231.112Z" fill="#455A64"/>
<path d="M187.006 117.781C183.935 112.458 177.359 109.148 171.387 110.59C168.641 111.255 165.928 113.149 165.416 115.921C164.768 119.385 167.6 122.396 169.059 125.595C170.188 128.225 170.447 131.148 169.798 133.936C169.149 136.725 167.626 139.233 165.45 141.094C161.672 144.182 159.94 144.233 156.63 142.092C156.511 141.026 156.357 139.985 156.195 138.97C155.342 134.005 150.352 128.512 146.949 124.801C143.775 121.347 137.071 119.683 133.454 116.689C125.385 110.027 118.629 97.2148 116.394 86.9958H107.139L88.3723 91.7044C88.3723 91.7044 83.7234 107.681 88.3723 122.925C93.0212 138.168 98.182 143.167 98.182 143.167C100.57 151.048 103.027 159.084 107.821 165.78C112.615 172.476 120.232 177.722 128.464 177.449C136.866 177.176 143.997 171.572 149.951 165.626C153.576 161.959 155.896 157.203 156.554 152.089C162.525 151.594 168.547 150.443 173.972 147.867C179.525 145.231 184.456 141 187.16 135.481C189.864 129.962 190.077 123.104 187.006 117.781Z" fill="#E89C19"/>
<path d="M138.214 146.98C138.664 147.885 139.362 148.644 140.225 149.169C141.089 149.694 142.084 149.965 143.094 149.949C144.105 149.933 145.091 149.631 145.937 149.078C146.784 148.526 147.457 147.745 147.878 146.826C148.51 145.444 148.595 143.73 149.721 142.706C150.497 141.989 151.597 141.785 152.502 141.239C153.34 140.642 153.995 139.822 154.391 138.872C154.788 137.923 154.91 136.881 154.745 135.865C154.38 133.839 153.531 131.931 152.271 130.303C150.966 128.432 149.499 126.68 147.887 125.066C147.119 124.298 146.181 123.513 145.089 123.658C143.767 123.846 143.076 125.304 142.649 126.575C140.572 132.736 139.054 139.071 138.111 145.504" fill="#273837"/>
<path d="M116.71 89.3501C116.71 88.3777 113.536 68.3831 111.344 65.7046C109.152 63.0262 99.8882 57.4133 99.8882 57.4133C99.8882 57.4133 88.9185 57.4133 86.4788 55.9547C84.0392 54.496 77.4625 50.3504 77.4625 50.3504C77.4625 50.3504 71.8582 54.0013 70.1522 58.3943C68.4462 62.7873 70.3911 67.8969 70.1522 68.3831C69.9134 68.8693 82.5806 77.4079 84.2866 80.0864C85.9926 82.7648 86.9651 93.7346 87.946 94.7155C88.927 95.6965 116.71 89.3501 116.71 89.3501Z" fill="#E89C19"/>
<path d="M103.556 65.0734C103.556 65.0734 103.001 65.4743 102.054 66.2761C100.722 67.404 99.5712 68.7304 98.6424 70.2085C97.9986 71.2185 97.4693 72.2971 97.0643 73.4244C96.5673 74.7035 96.2792 76.0543 96.2113 77.425C96.1272 78.926 96.5675 80.4096 97.4567 81.6218C98.491 82.8636 99.8673 83.7742 101.415 84.2405C102.972 84.7447 104.57 85.1101 106.192 85.3324C107.735 85.6054 109.314 85.6992 110.542 84.9741C111.136 84.6547 111.594 84.1303 111.83 83.4984C112.028 82.8762 112.1 82.221 112.043 81.5706C111.941 80.2911 111.77 79.0713 111.659 77.9709C111.438 75.8128 111.25 74.0385 111.113 72.7419C111.054 72.1704 111.02 71.6927 110.985 71.3174C110.965 71.1531 110.965 70.9869 110.985 70.8227C111.041 70.9795 111.075 71.143 111.088 71.3089C111.148 71.6842 111.216 72.1619 111.301 72.7249C111.472 74.0129 111.702 75.7787 111.992 77.9368C112.12 79.0457 112.308 80.2314 112.427 81.5536C112.499 82.2518 112.426 82.9574 112.214 83.6264C111.95 84.3504 111.436 84.9558 110.764 85.3324C110.078 85.7195 109.308 85.9333 108.52 85.9551C107.723 85.9778 106.925 85.9149 106.14 85.7674C104.49 85.543 102.863 85.1719 101.278 84.6585C99.651 84.163 98.206 83.1987 97.124 81.8862C96.1888 80.5903 95.7279 79.012 95.8189 77.4164C95.8703 76.005 96.1587 74.6122 96.6719 73.2964C97.751 70.4741 99.5795 67.9997 101.961 66.1396C102.335 65.8317 102.728 65.5468 103.138 65.2866C103.268 65.1983 103.408 65.1267 103.556 65.0734Z" fill="#273837"/>
<path d="M88.9696 62.4973C88.9269 62.4973 89.1402 61.9684 89.8226 61.5249C90.2858 61.2232 90.8216 61.0518 91.3738 61.0286C91.9261 61.0054 92.4744 61.1313 92.9613 61.393C93.4481 61.6548 93.8555 62.0427 94.1408 62.5162C94.426 62.9896 94.5786 63.5312 94.5824 64.0839C94.6433 64.5322 94.5236 64.9863 94.2497 65.3464C94.1729 65.3464 94.3606 64.8601 94.2497 64.1095C94.2101 63.6294 94.0518 63.1666 93.7891 62.7627C93.5265 62.3589 93.1676 62.0266 92.7447 61.7957C92.3219 61.5649 91.8483 61.4426 91.3666 61.44C90.8848 61.4374 90.41 61.5545 89.9847 61.7808C89.6329 62 89.294 62.2393 88.9696 62.4973Z" fill="#273837"/>
<path d="M70.9541 58.599C71.0309 58.599 71.3465 59.452 72.0971 60.7059C74.0648 64.023 77.1399 66.5393 80.7808 67.8115C82.1712 68.2892 83.0839 68.4342 83.0754 68.511C82.8582 68.55 82.6358 68.55 82.4186 68.511C81.8409 68.4313 81.2704 68.3058 80.7126 68.1357C78.8287 67.5742 77.0752 66.6441 75.5538 65.3995C74.0324 64.1548 72.7733 62.6203 71.8498 60.8851C71.5662 60.3639 71.3293 59.8187 71.1418 59.2558C71.0388 59.0505 70.9752 58.8277 70.9541 58.599Z" fill="#273837"/>
<path d="M70.7831 58.9744C70.1156 58.0922 69.5222 57.1564 69.0089 56.1765C68.7785 55.75 68.6335 55.3235 68.3606 54.8799C68.2274 54.6649 68.0481 54.4822 67.8357 54.345C67.6233 54.2078 67.383 54.1195 67.1322 54.0866C66.8642 54.0832 66.6003 54.1529 66.3688 54.2881C66.1374 54.4234 65.9472 54.6191 65.8186 54.8543C65.5926 55.3081 65.5065 55.8187 65.5712 56.3215C65.6501 57.1905 65.903 58.0348 66.3148 58.8041C66.7266 59.5735 67.2888 60.2521 67.9682 60.7998C69.4201 61.9535 71.2325 62.5576 73.0862 62.5058C72.3878 61.2849 71.6188 60.1058 70.7831 58.9744Z" fill="#FFF1C6"/>
<path d="M112.137 80.3167C111.638 79.7777 111.028 79.3536 110.349 79.0737C109.67 78.7939 108.939 78.665 108.205 78.6959C106.738 78.769 105.305 79.1652 104.008 79.856C103.094 80.2611 102.269 80.8406 101.577 81.5621C101.241 81.9321 100.991 82.3715 100.843 82.8491C100.696 83.3267 100.655 83.8308 100.724 84.3258C100.724 84.3258 106.2 85.9721 108.034 85.7418C109.868 85.5115 111.387 85.6651 112.137 83.3107C112.325 82.3215 112.325 81.3059 112.137 80.3167Z" fill="#273837"/>
<path d="M180.566 111.742C177.964 112.262 177.026 115.017 176.795 117.269C176.591 118.926 176.76 120.608 177.29 122.191C177.832 123.777 178.909 125.125 180.335 126.004C181.876 126.836 183.659 127.105 185.377 126.763C186.512 126.635 187.561 126.091 188.32 125.236C189.377 123.871 189.028 122.2 188.098 120.203C186.392 116.57 184.123 113.618 180.566 111.742Z" fill="#273837"/>
<path d="M128.31 176.929C129.522 178.763 130.776 180.725 130.869 182.9C130.963 185.075 129.377 187.523 127.176 187.498C125.325 187.498 123.943 185.851 122.826 184.367C119.533 179.991 115.643 174.549 112.351 170.173C117.829 167.464 122.981 164.139 127.705 160.261C129.999 166.607 128.259 170.642 128.558 177.372" fill="#E89C19"/>
<path d="M154.413 162.786C154.581 162.277 154.857 161.811 155.222 161.42C155.587 161.028 156.033 160.72 156.528 160.517C157.413 160.184 158.269 159.779 159.087 159.306C159.496 159.063 159.822 158.703 160.023 158.272C160.224 157.842 160.29 157.36 160.213 156.891C160.053 156.492 159.794 156.14 159.462 155.867C159.13 155.595 158.734 155.41 158.311 155.33C157.611 155.141 156.881 155.092 156.163 155.185C155.444 155.279 154.751 155.513 154.123 155.876C153.495 156.238 152.945 156.721 152.504 157.296C152.064 157.871 151.741 158.528 151.555 159.229C151.103 160.935 151.666 162.991 153.261 163.741" fill="#FFBE9D"/>
<path d="M135.083 167.904L147.836 169.311L150.599 165.899L152.365 167.452C152.365 167.452 148.68 173.338 147.247 173.286C145.814 173.235 135.04 171.145 133.599 170.796C132.157 170.446 131.927 167.401 135.083 167.904Z" fill="#FFBE9D"/>
<path d="M132.414 171.973L144.757 173.022L147.179 170.045L148.732 171.41C148.732 171.41 144.27 177.287 143.025 177.287C141.78 177.287 132.379 174.839 131.134 174.54C129.889 174.242 129.641 171.563 132.414 171.973Z" fill="#FFBE9D"/>
<path d="M139.084 163.937L150.958 164.432L153.85 160.286L154.95 160.841C154.95 160.841 152.587 170.036 151.171 169.985C149.755 169.934 139.041 167.196 137.617 166.855C136.192 166.513 135.919 163.477 139.084 163.937Z" fill="#FFBE9D"/>
<path d="M154.361 162.974C154.228 164.033 153.94 165.068 153.508 166.044C153.103 167.133 152.636 168.199 152.109 169.235C152.029 169.387 151.94 169.535 151.845 169.678C151.78 169.777 151.7 169.863 151.606 169.934C151.515 169.988 151.413 170.02 151.307 170.028C150.94 170.088 150.566 170.088 150.198 170.028L148.032 169.67C145.496 169.228 142.987 168.645 140.517 167.921C139.57 167.639 138.811 167.384 138.29 167.196C138.01 167.118 137.743 167.001 137.497 166.846C137.497 166.786 138.691 167.136 140.593 167.622C142.496 168.109 145.149 168.706 148.109 169.235L150.267 169.601C150.586 169.652 150.911 169.652 151.231 169.601C151.29 169.601 151.418 169.601 151.41 169.55L151.504 169.431C151.593 169.302 151.675 169.168 151.751 169.03C152.289 168.017 152.776 166.978 153.21 165.916C153.602 165.012 153.892 164.27 154.063 163.758C154.137 163.488 154.237 163.225 154.361 162.974Z" fill="#EB996E"/>
<path d="M150.779 169.985C150.702 170.219 150.586 170.438 150.437 170.634C150.076 171.203 149.665 171.74 149.209 172.237C148.884 172.588 148.514 172.895 148.109 173.15C147.623 173.437 147.069 173.59 146.505 173.593C145.904 173.582 145.307 173.49 144.731 173.321C144.131 173.157 143.521 173.032 142.905 172.945C140.346 172.493 138.086 171.956 136.448 171.563C135.55 171.395 134.666 171.158 133.804 170.855C134.715 170.907 135.62 171.041 136.508 171.256C138.171 171.572 140.449 172.058 142.982 172.502C144.27 172.638 145.464 173.193 146.505 173.184C146.976 173.168 147.44 173.056 147.867 172.855C148.293 172.654 148.675 172.369 148.987 172.015C150.156 170.838 150.71 169.934 150.779 169.985Z" fill="#EB996E"/>
<path d="M31.0415 87.8488C31.0415 87.8488 10.5693 101.011 13.0259 122.302C15.4826 143.593 37.7633 158.478 42.9581 163.042C48.153 167.605 79.6376 182.977 104.861 173.679C131.151 163.997 141.541 144.924 143.997 137.349C146.454 129.774 147.879 115.29 143.921 111.034C139.963 106.777 127.5 100.09 124.455 102.504C121.41 104.918 124.455 114.975 108.034 116.8C91.6139 118.625 47.2146 97.3343 46.3019 97.0272C45.3892 96.7201 31.0415 87.8488 31.0415 87.8488Z" fill="#C2F4FF"/>
<g opacity="0.3">
<path d="M96.0497 117.022L88.7138 113.269L86.3168 91.8835C80.7637 88.1473 74.1443 88.3179 68.5401 91.9773C66.109 93.5554 64.1897 95.7988 62.0572 97.7608C59.9246 99.7227 57.3741 101.48 54.4909 101.727C53.2285 101.838 51.9319 101.659 50.695 101.838C50.0592 101.888 49.4484 102.108 48.9274 102.476C48.4064 102.844 47.9944 103.345 47.7351 103.928C47.3427 105.131 47.6583 106.368 49.6203 107.101L57.6897 110.906C57.6897 110.906 55.3695 115.077 58.4148 122.285C61.4601 129.493 68.4206 127.198 68.4206 127.198C68.4206 127.198 68.5315 141.298 77.7526 141.392C82.4527 141.443 85.4894 138.117 89.2256 127.531C90.138 124.971 91.6566 122.671 93.6516 120.826C95.6465 118.981 98.0586 117.646 100.682 116.936C101.961 116.459 95.137 117.576 96.0497 117.022Z" fill="black"/>
</g>
<path d="M134.435 104.559L134.23 104.483L133.642 104.244C133.121 104.03 132.354 103.723 131.338 103.391C130.124 102.963 128.869 102.657 127.594 102.478C126.808 102.364 126.008 102.39 125.231 102.555C124.822 102.655 124.444 102.854 124.13 103.135C123.822 103.444 123.609 103.834 123.516 104.261C123.051 106.31 122.259 108.272 121.171 110.07C120.547 111.062 119.83 111.994 119.029 112.851C118.623 113.318 118.169 113.741 117.673 114.113C117.154 114.479 116.607 114.801 116.035 115.077C113.604 116.197 111.015 116.933 108.358 117.261C106.962 117.451 105.553 117.525 104.144 117.482L102.012 117.38C101.299 117.363 100.587 117.397 99.8793 117.482C98.0698 117.621 96.3394 118.282 94.8978 119.385C92.9392 120.908 91.3792 122.884 90.3512 125.142C89.3877 127.226 88.7739 129.453 88.5343 131.736C88.2024 135.584 88.5901 139.46 89.6773 143.167C90.5303 146.323 91.4686 148.796 92.0828 150.503C92.3899 151.356 92.6287 151.978 92.7993 152.456L92.9785 152.968L93.0297 153.147C93.0297 153.147 92.987 153.096 92.9358 152.985C92.8846 152.874 92.8079 152.686 92.7226 152.49C92.5264 152.021 92.2705 151.373 91.9378 150.554C90.9565 148.164 90.1023 145.724 89.3788 143.243C88.2449 139.508 87.8253 135.593 88.1419 131.702C88.377 129.374 88.9937 127.1 89.9674 124.972C91.0204 122.65 92.6181 120.616 94.6248 119.043C96.1327 117.865 97.9542 117.155 99.8623 117.005C100.59 116.92 101.322 116.886 102.055 116.902L104.196 117.013C108.207 117.104 112.189 116.306 115.856 114.676C116.959 114.183 117.942 113.459 118.739 112.552C119.531 111.718 120.239 110.81 120.855 109.839C121.942 108.083 122.737 106.161 123.209 104.15C123.319 103.664 123.572 103.221 123.934 102.879C124.286 102.571 124.708 102.355 125.163 102.248C125.975 102.099 126.807 102.099 127.619 102.248C128.91 102.445 130.176 102.777 131.398 103.237C132.405 103.595 133.164 103.937 133.676 104.167L134.247 104.448C134.375 104.508 134.443 104.551 134.435 104.559Z" fill="#273837"/>
<path d="M83.8001 159.579C83.6072 159.238 83.4527 158.878 83.3395 158.504C82.9581 157.519 82.6334 156.514 82.3671 155.493C81.9499 153.977 81.6196 152.439 81.3776 150.886C80.7922 147.077 80.729 143.206 81.1899 139.379C81.3837 137.82 81.6685 136.273 82.0429 134.747C82.3585 133.442 82.6656 132.402 82.8959 131.702C83.0038 131.328 83.1466 130.966 83.3224 130.619C83.28 131.005 83.1942 131.386 83.0665 131.753C82.8618 132.47 82.6059 133.51 82.3329 134.816C82.06 136.121 81.7955 137.682 81.5994 139.422C81.184 143.216 81.247 147.048 81.787 150.827C82.0429 152.533 82.3415 154.119 82.64 155.407C82.9386 156.695 83.2457 157.745 83.493 158.453C83.6286 158.818 83.7313 159.195 83.8001 159.579Z" fill="#273837"/>
<path d="M61.4599 111.81C60.7325 111.739 60.018 111.569 59.3359 111.307C57.6601 110.773 56.0286 110.108 54.4567 109.319C52.874 108.533 51.359 107.617 49.9272 106.581C49.2963 106.193 48.7221 105.719 48.2212 105.173C48.8641 105.509 49.4801 105.894 50.0637 106.325C51.5269 107.258 53.0388 108.112 54.5932 108.884C56.1461 109.667 57.7408 110.365 59.3701 110.974C60.086 111.202 60.7844 111.481 61.4599 111.81Z" fill="#273837"/>
<path d="M18.8604 103.433C19.0565 103.159 19.2857 102.91 19.5428 102.691C20.2118 102.058 20.937 101.487 21.7094 100.985C24.2696 99.2901 27.2374 98.3121 30.3038 98.1531C33.3702 97.9941 36.4231 98.6598 39.145 100.081C39.9673 100.497 40.7497 100.989 41.4822 101.548C41.7668 101.738 42.025 101.964 42.2499 102.222C42.1987 102.299 41.0984 101.369 39.0255 100.362C36.3315 99.0438 33.347 98.4304 30.3513 98.5796C27.3556 98.7288 24.4467 99.6357 21.8971 101.215C19.9181 102.452 18.9201 103.502 18.8604 103.433Z" fill="#273837"/>
<path d="M141.122 143.695C141.077 143.8 141.023 143.9 140.96 143.994C140.832 144.199 140.662 144.472 140.449 144.847C139.988 145.572 139.357 146.69 138.393 148.012C135.775 151.844 132.78 155.404 129.453 158.64C124.536 163.476 118.903 167.524 112.751 170.642C109.105 172.441 105.287 173.87 101.355 174.907C97.1185 175.986 92.7691 176.558 88.3978 176.613C86.1544 176.724 83.9451 176.562 81.7614 176.485C79.5862 176.255 77.4366 176.11 75.3553 175.726C71.3361 175.111 67.3675 174.201 63.4814 173.005C56.8834 170.985 50.5753 168.118 44.7151 164.475C40.7758 162.025 37.137 159.122 33.8733 155.825C33.3452 155.323 32.8495 154.787 32.3891 154.222L31.3569 153.002L30.7257 152.251C30.6485 152.17 30.5799 152.082 30.521 151.987C30.521 151.987 30.6063 152.063 30.7598 152.226L31.4252 152.951L32.4915 154.128C32.9613 154.682 33.4625 155.209 33.9928 155.706C37.2928 158.948 40.9467 161.81 44.8857 164.236C50.7317 167.831 57.0122 170.666 63.5752 172.672C67.4472 173.848 71.3982 174.746 75.3979 175.359C77.4622 175.735 79.6033 175.871 81.7614 176.101C83.9366 176.178 86.1374 176.34 88.3637 176.229C92.701 176.17 97.0161 175.598 101.219 174.523C105.127 173.48 108.921 172.052 112.547 170.258C118.691 167.181 124.326 163.179 129.257 158.393C132.593 155.194 135.613 151.68 138.273 147.901C139.263 146.587 139.911 145.495 140.397 144.779L140.943 143.968C140.994 143.872 141.054 143.78 141.122 143.695Z" fill="#273837"/>
<path d="M51.0447 167.844C44.6812 138.842 56.2737 109.933 56.2737 109.933L52.0086 107.698L51.7271 108.304C41.8143 123.722 37.4405 142.054 39.3243 160.287C42.8301 163.379 46.7811 165.927 51.0447 167.844Z" fill="#FAFAFA"/>
<path d="M79.3817 105.967C78.3607 106.858 77.5396 107.954 76.9722 109.185C76.4047 110.415 76.1038 111.752 76.0891 113.106C75.9356 115.853 75.9014 118.915 73.9992 120.903C71.7473 123.249 67.5846 122.873 65.1876 120.673C62.7907 118.472 61.9376 114.992 62.0997 111.742C62.4409 105.301 66.9619 97.829 72.8221 95.125C78.6823 92.4209 83.0582 90.0069 93.4223 87.8488L89.9505 104.781C89.9505 104.781 80.8745 104.781 79.3817 105.967Z" fill="#E89C19"/>
<path d="M87.8774 100.729C87.7769 100.304 87.7169 99.8695 87.6983 99.4327C87.6215 98.5114 87.5277 97.3343 87.4083 95.9524L87.7409 96.0036C87.384 96.9423 86.861 97.8092 86.197 98.5626L85.7022 99.1171L85.8473 98.3835C86.1814 96.6283 86.3612 94.8472 86.3846 93.0607C86.4357 89.9762 86.0334 86.9009 85.1904 83.9335C84.5592 81.6559 83.9365 80.3167 84.0133 80.2826C84.2064 80.5708 84.3667 80.8798 84.491 81.2038C84.8793 82.0642 85.2154 82.9473 85.4975 83.8482C86.4351 86.83 86.8845 89.9439 86.8282 93.0692C86.8062 94.8838 86.6091 96.692 86.2396 98.4688L85.8899 98.2896C86.5401 97.5803 87.0573 96.7597 87.4168 95.8671L87.7153 95.1335V95.9183C87.7751 97.3087 87.8177 98.4773 87.8604 99.4156C87.9066 99.852 87.9123 100.292 87.8774 100.729Z" fill="#273837"/>
<path d="M87.1696 89.3757C86.9951 89.4486 86.8155 89.5084 86.6322 89.5548C86.2739 89.6657 85.7792 89.8192 85.0797 90.041C83.1937 90.6569 81.3476 91.389 79.5522 92.2332C78.4091 92.7621 77.1808 93.3848 75.8757 94.0758C74.4751 94.7915 73.1114 95.5773 71.7898 96.4301C68.7612 98.3667 66.2237 100.98 64.3771 104.065C62.5906 107.188 61.869 110.808 62.3213 114.377C62.5241 115.918 63.044 117.399 63.8482 118.728C64.6032 119.851 65.6342 120.762 66.8423 121.372C67.8153 121.917 68.8952 122.243 70.007 122.328C70.8519 122.348 71.6917 122.191 72.4722 121.867C72.9781 121.679 73.4398 121.388 73.8285 121.014C73.9547 120.879 74.0688 120.734 74.1697 120.579C74.1312 120.768 74.0359 120.94 73.8967 121.074C73.5184 121.477 73.0552 121.792 72.5404 121.995C71.736 122.357 70.8635 122.543 69.9814 122.541C68.8236 122.482 67.6932 122.168 66.6717 121.619C65.4039 120.998 64.3171 120.061 63.5156 118.898C62.6664 117.529 62.1116 115.998 61.8863 114.403C61.399 110.739 62.1304 107.016 63.9677 103.809C65.8483 100.665 68.4433 98.0083 71.5424 96.0547C72.8796 95.2039 74.2606 94.4237 75.6795 93.7175C76.9931 93.0351 78.2385 92.4294 79.3901 91.9176C81.2098 91.0929 83.0854 90.3974 85.0029 89.8363C85.6853 89.6486 86.2142 89.5121 86.581 89.4354C86.7741 89.3921 86.9717 89.372 87.1696 89.3757Z" fill="#273837"/>
<path d="M64.2577 119.564C64.2065 119.564 63.9762 119.214 63.8056 118.54C63.606 117.662 63.5684 116.754 63.6947 115.862C63.7738 114.584 64.2578 113.365 65.0766 112.381C64.6703 113.535 64.3566 114.718 64.1383 115.921C64.0168 117.135 64.057 118.36 64.2577 119.564Z" fill="#273837"/>
<path d="M68.3009 122.302C67.6722 121.402 67.3574 120.32 67.4052 119.223C67.3545 118.137 67.5898 117.058 68.0876 116.092C68.2326 116.092 67.8658 117.517 67.8488 119.223C67.8317 120.929 68.4459 122.251 68.3009 122.302Z" fill="#273837"/>
<path d="M100.963 90.7746C101.816 92.8218 102.669 95.1079 101.867 97.1892C100.852 99.9359 97.6021 100.968 94.7701 101.761C89.1146 103.374 83.425 105.583 79.2197 109.694C75.0143 113.806 72.6089 120.195 74.5878 125.731C74.9513 126.879 75.5632 127.932 76.38 128.817C77.1967 129.702 78.1983 130.395 79.3135 130.849C81.8726 131.702 84.8666 130.721 86.8627 128.853C88.8587 126.985 89.4729 124.733 90.2747 122.123C90.7383 120.523 91.622 119.077 92.8338 117.934C94.1389 116.894 95.9728 116.988 97.6447 116.996C102.764 117.018 107.807 115.751 112.308 113.311L109.254 112.859C110.788 112.11 112.064 110.923 112.922 109.447L110.977 111.059C113.077 105.813 113.521 100.05 112.248 94.5449" fill="#E89C19"/>
<path d="M111.949 94.4767C112.237 95.8333 112.411 97.2113 112.47 98.5967C112.671 102.448 112.182 106.305 111.028 109.984L110.815 109.814L113.075 108.611L113.545 108.364L113.289 108.833C112.227 110.715 110.681 112.279 108.81 113.362L108.742 113.038L111.532 113.294L112.035 113.337L111.617 113.627C109.416 115.116 106.934 116.14 104.324 116.638C102.941 116.909 101.542 117.083 100.135 117.158C98.7107 117.261 97.235 117.158 95.7934 117.244C95.0736 117.269 94.3636 117.419 93.695 117.687C93.0313 117.969 92.4565 118.426 92.0317 119.009C91.1978 120.278 90.5648 121.668 90.155 123.129C89.7318 124.673 89.0698 126.141 88.1931 127.48C87.287 128.869 86.0345 129.998 84.5593 130.755C83.5617 131.228 82.4672 131.461 81.3636 131.434C80.2599 131.407 79.1779 131.122 78.2043 130.602C76.3293 129.548 74.9443 127.798 74.3487 125.731C73.3418 121.852 73.7877 117.738 75.6027 114.164C77.2092 110.948 79.7011 108.258 82.785 106.41C84.1882 105.622 85.6447 104.932 87.1439 104.346C88.5514 103.715 89.9247 103.126 91.264 102.64C93.9339 101.659 96.5441 101.42 98.5401 100.431C99.4733 100 100.268 99.3176 100.835 98.4602C101.273 97.7188 101.563 96.8987 101.688 96.0462C101.892 94.8542 101.857 93.6335 101.585 92.455C101.398 91.6532 101.202 91.2608 101.227 91.2438C101.426 91.6218 101.578 92.0229 101.679 92.438C101.985 93.6246 102.046 94.8609 101.858 96.0718C101.742 96.9558 101.452 97.8081 101.005 98.5797C100.427 99.4782 99.6086 100.196 98.6425 100.652C96.5867 101.693 93.9936 101.949 91.3578 102.939C90.0356 103.399 88.6879 103.996 87.2804 104.645C85.7975 105.24 84.3556 105.932 82.9641 106.717C79.9534 108.543 77.5244 111.188 75.9609 114.343C75.122 116.039 74.5769 117.865 74.3487 119.743C74.2774 120.223 74.2404 120.708 74.2378 121.193C74.208 121.684 74.208 122.177 74.2378 122.669C74.2665 123.657 74.433 124.636 74.7326 125.577C75.2959 127.536 76.6074 129.193 78.3835 130.192C79.2978 130.683 80.3145 130.951 81.3517 130.977C82.3889 131.002 83.4175 130.783 84.3546 130.337C85.7587 129.612 86.9517 128.537 87.8178 127.215C88.6701 125.899 89.3172 124.461 89.7371 122.95C90.154 121.434 90.8105 119.994 91.6819 118.685C92.152 118.046 92.7855 117.545 93.5159 117.235C94.2311 116.951 94.9901 116.792 95.7593 116.766C97.2606 116.698 98.6937 116.766 100.11 116.689C101.496 116.619 102.876 116.451 104.238 116.186C106.798 115.703 109.235 114.711 111.404 113.269L111.489 113.601L108.7 113.328L108.145 113.277L108.631 112.996C110.455 111.954 111.966 110.443 113.007 108.62L113.212 108.833L110.943 110.01L110.627 110.181L110.738 109.839C111.907 106.193 112.436 102.372 112.299 98.5456C112.299 97.2063 112.137 96.1742 112.06 95.4747L111.958 94.6899C111.949 94.6192 111.947 94.5479 111.949 94.4767Z" fill="#273837"/>
<path d="M76.0805 128.717C75.4399 127.964 75.0803 127.013 75.0631 126.025C75.046 125.037 75.3725 124.074 75.9867 123.3C75.7293 124.187 75.572 125.099 75.5175 126.021C75.6103 126.937 75.799 127.84 76.0805 128.717Z" fill="#273837"/>
<path d="M79.6889 130.977C79.6377 130.977 79.3733 130.713 79.0577 130.124C78.6691 129.373 78.4342 128.553 78.3667 127.71C78.2447 126.515 78.476 125.311 79.0321 124.247C79.1856 124.247 78.6994 125.808 78.8103 127.659C78.9731 128.795 79.2679 129.909 79.6889 130.977Z" fill="#273837"/>
<path d="M85.2674 130.201C84.5025 129.549 83.9179 128.712 83.5698 127.769C83.2218 126.827 83.1219 125.811 83.2799 124.818C83.4078 124.818 83.4249 126.132 83.9879 127.616C84.5509 129.1 85.3698 130.115 85.2674 130.201Z" fill="#273837"/>
<path d="M355.169 190.594H265.244V272.185H355.169V190.594Z" fill="#01CBC5"/>
<g opacity="0.3">
<path d="M355.169 190.594H265.244V272.185H355.169V190.594Z" fill="#8C6A03"/>
</g>
<path d="M318.148 190.594H228.224V272.185H318.148V190.594Z" fill="#FFF1C6"/>
<path d="M228.224 190.594L209.534 220.313H295.919L318.148 190.594H228.224Z" fill="#01CBC5"/>
<g opacity="0.3">
<path d="M228.224 190.594L209.534 220.313H295.919L318.148 190.594H228.224Z" fill="#8C6A03"/>
</g>
<path d="M318.148 190.594C318.148 190.594 318.148 190.645 318.063 190.748L317.764 191.174L316.57 192.812C315.504 194.262 314.011 196.343 312.041 198.962C308.125 204.242 302.589 211.68 296.081 220.441L296.021 220.518H295.919H271.292L227.618 220.449L214.388 220.381L210.788 220.339L214.388 220.296L227.618 220.228L271.292 220.159H295.919L295.757 220.236L311.844 198.86L316.468 192.778L317.705 191.174L318.029 190.765L318.148 190.594Z" fill="#263238"/>
<path d="M318.984 190.594L342.724 220.313H380L355.178 190.594H318.984Z" fill="#FFF1C6"/>
<path d="M302.956 226.221L237.045 239.188L241.711 262.907L307.623 249.94L302.956 226.221Z" fill="#FAFAFA"/>
<path d="M307.639 249.912L307.545 249.494C307.486 249.196 307.4 248.795 307.29 248.266L306.326 243.575C305.473 239.497 304.313 233.586 302.828 226.216L303.007 226.335L237.112 239.378L237.283 239.122C238.912 247.387 240.482 255.397 241.94 262.844L241.693 262.673L288.873 253.495L302.641 250.842L306.343 250.143L307.307 249.964L307.639 249.912C307.544 249.951 307.443 249.977 307.341 249.989L306.402 250.185L302.76 250.927L289.061 253.691L241.778 263.074L241.565 263.117L241.522 262.912L236.848 239.19L236.805 238.968L237.027 238.926L302.948 226.028H303.093V226.182C304.517 233.603 305.652 239.548 306.454 243.66C306.837 245.681 307.127 247.251 307.307 248.326C307.4 248.846 307.477 249.247 307.528 249.529C307.572 249.654 307.609 249.783 307.639 249.912Z" fill="#263238"/>
<path d="M252.944 249.529L249.89 250.126L249.566 251.661L248.397 251.891L249.941 245.246L251.059 245.025L255.017 250.586L253.831 250.817L252.944 249.529ZM252.39 248.676L250.684 246.236L250.069 249.128L252.39 248.676Z" fill="#263238"/>
<path d="M254.573 244.325L257.209 243.822C259.197 243.43 260.783 244.385 261.15 246.219C261.517 248.053 260.399 249.537 258.412 249.929L255.75 250.45L254.573 244.325ZM258.199 248.957C258.488 248.916 258.766 248.817 259.015 248.664C259.264 248.512 259.48 248.311 259.648 248.072C259.817 247.833 259.934 247.563 259.994 247.277C260.054 246.991 260.055 246.696 259.997 246.41C259.939 246.124 259.822 245.852 259.655 245.613C259.488 245.373 259.274 245.17 259.026 245.016C258.777 244.863 258.5 244.761 258.211 244.719C257.922 244.676 257.628 244.693 257.346 244.769L255.87 245.067L256.723 249.247L258.199 248.957Z" fill="#263238"/>
<path d="M261.943 246.048C261.784 245.398 261.823 244.715 262.055 244.087C262.287 243.459 262.702 242.915 263.246 242.526C263.791 242.136 264.439 241.918 265.108 241.899C265.777 241.881 266.437 242.064 267.001 242.424C267.566 242.784 268.009 243.304 268.275 243.919C268.541 244.533 268.617 245.213 268.493 245.871C268.37 246.529 268.052 247.134 267.58 247.61C267.109 248.086 266.507 248.409 265.85 248.539C265.429 248.646 264.991 248.665 264.563 248.596C264.134 248.527 263.724 248.371 263.358 248.138C262.992 247.904 262.678 247.599 262.435 247.239C262.191 246.88 262.024 246.475 261.943 246.048ZM267.377 244.982C267.294 244.557 267.086 244.167 266.781 243.861C266.476 243.554 266.086 243.345 265.662 243.26C265.238 243.175 264.798 243.218 264.398 243.384C263.998 243.55 263.657 243.83 263.417 244.19C263.177 244.55 263.049 244.973 263.05 245.406C263.051 245.839 263.18 246.261 263.422 246.62C263.663 246.979 264.006 247.258 264.406 247.422C264.807 247.586 265.247 247.628 265.671 247.541C265.955 247.493 266.225 247.387 266.467 247.23C266.708 247.073 266.915 246.869 267.075 246.629C267.235 246.39 267.344 246.12 267.396 245.837C267.448 245.553 267.441 245.263 267.377 244.982Z" fill="#263238"/>
<path d="M274.662 242.628C274.926 243.975 274.099 244.999 272.487 245.315L271.113 245.588L271.463 247.345L270.329 247.567L269.151 241.468L271.659 240.973C273.237 240.657 274.397 241.263 274.662 242.628ZM273.519 242.858C273.365 242.09 272.768 241.741 271.77 241.937L270.448 242.201L270.926 244.624L272.248 244.368C273.246 244.172 273.672 243.617 273.519 242.858Z" fill="#263238"/>
<path d="M276.623 240.981L274.602 241.382L274.414 240.418L279.592 239.403L279.779 240.359L277.758 240.76L278.773 245.878L277.638 246.108L276.623 240.981Z" fill="#263238"/>
<path d="M289.666 243.762L288.865 239.719L287.517 243.464L287.014 243.557L284.352 240.657L285.145 244.649L284.062 244.863L282.859 238.764L283.789 238.576L287.014 242.15L288.6 237.629L289.53 237.45L290.741 243.549L289.666 243.762Z" fill="#263238"/>
<path d="M296.789 241.374L296.968 242.329L292.396 243.225L291.193 237.117L295.646 236.264L295.834 237.211L292.516 237.868L292.823 239.454L295.774 238.874L295.953 239.804L293.036 240.41L293.369 242.116L296.789 241.374Z" fill="#263238"/>
</svg>
