<svg width="25" height="18" viewBox="0 0 25 18" fill="none" xmlns="http://www.w3.org/2000/svg">
<path d="M2.70045 11.6478C2.70045 12.602 2.91015 13.3355 3.18395 13.7787C3.54291 14.3592 4.07861 14.6055 4.62437 14.6055C5.32856 14.6055 5.97231 14.4306 7.21402 12.7137C8.20849 11.3374 9.38061 9.4061 10.169 8.19461L11.5042 6.14249C12.4318 4.71763 13.505 3.13344 14.7366 2.06022C15.7412 1.18388 16.8254 0.696716 17.9169 0.696716C19.7484 0.696716 21.4937 1.75803 22.8288 3.7488C24.2903 5.92913 25 8.67536 25 11.5095C25 13.1944 24.6676 14.4325 24.1026 15.4105C23.5568 16.3564 22.4928 17.3014 20.7025 17.3014V14.6046C22.2354 14.6046 22.6173 13.1963 22.6173 11.5846C22.6173 9.28798 22.0816 6.73862 20.9022 4.91726C20.0652 3.62518 18.9801 2.83583 17.786 2.83583C16.4948 2.83583 15.4564 3.80924 14.2889 5.54544C13.668 6.46757 13.0307 7.59207 12.3155 8.86034L11.528 10.2559C9.94561 13.0617 9.54452 13.6999 8.75426 14.7548C7.36786 16.6009 6.18384 17.3014 4.62529 17.3014C2.77646 17.3014 1.60708 16.5011 0.882752 15.2942C0.290282 14.3116 0 13.0214 0 11.5507L2.70045 11.6478Z" fill="#0081FB"/>
<path d="M2.12903 3.94019C3.36708 2.03183 5.15364 0.697632 7.20302 0.697632C8.38979 0.697632 9.56923 1.04927 10.8009 2.05473C12.1488 3.1545 13.5847 4.96488 15.3767 7.95012L16.0195 9.0215C17.5708 11.6057 18.4526 12.9344 18.9691 13.5616C19.633 14.3665 20.0982 14.6065 20.7025 14.6065C22.2354 14.6065 22.6173 13.1981 22.6173 11.5864L24.9991 11.5113C24.9991 13.1963 24.6667 14.4343 24.1017 15.4123C23.5559 16.3582 22.4918 17.3033 20.7016 17.3033C19.589 17.3033 18.6028 17.0615 17.5131 16.0332C16.6752 15.2438 15.6954 13.8418 14.9417 12.5809L12.7001 8.83561C11.5756 6.95565 10.5436 5.5546 9.94559 4.92C9.30276 4.2378 8.4777 3.41365 7.15906 3.41365C6.09225 3.41365 5.18661 4.16179 4.42839 5.30735L2.12903 3.94019Z" fill="url(#paint0_linear_237_2996)"/>
<path d="M7.15908 3.41182C6.09227 3.41182 5.18662 4.15996 4.42841 5.30552C3.3561 6.9236 2.70045 9.33285 2.70045 11.6478C2.70045 12.602 2.91015 13.3355 3.18395 13.7787L0.881836 15.2951C0.290282 14.3116 0 13.0214 0 11.5507C0 8.87774 0.73349 6.09121 2.12904 3.93927C3.36709 2.03092 5.15366 0.696716 7.20303 0.696716L7.15908 3.41182Z" fill="url(#paint1_linear_237_2996)"/>
<defs>
<linearGradient id="paint0_linear_237_2996" x1="5.4192" y1="8.56923" x2="22.6323" y2="9.43861" gradientUnits="userSpaceOnUse">
<stop stop-color="#0064E1"/>
<stop offset="0.4" stop-color="#0064E1"/>
<stop offset="0.83" stop-color="#0073EE"/>
<stop offset="1" stop-color="#0082FB"/>
</linearGradient>
<linearGradient id="paint1_linear_237_2996" x1="3.60133" y1="12.7812" x2="3.60133" y2="6.43497" gradientUnits="userSpaceOnUse">
<stop stop-color="#0082FB"/>
<stop offset="1" stop-color="#0064E0"/>
</linearGradient>
</defs>
</svg>
